<?xml version="1.0" encoding="UTF-8" standalone="no"?>
<svg
   xmlns:dc="http://purl.org/dc/elements/1.1/"
   xmlns:cc="http://creativecommons.org/ns#"
   xmlns:rdf="http://www.w3.org/1999/02/22-rdf-syntax-ns#"
   xmlns:svg="http://www.w3.org/2000/svg"
   xmlns="http://www.w3.org/2000/svg"
   xmlns:sodipodi="http://sodipodi.sourceforge.net/DTD/sodipodi-0.dtd"
   xmlns:inkscape="http://www.inkscape.org/namespaces/inkscape"
   version="1.0"
   width="616.26593pt"
   height="200.69867pt"
   viewBox="0 0 616.26592 200.69866"
   preserveAspectRatio="xMidYMid meet"
   id="svg2"
   inkscape:version="0.91 r13725"
   sodipodi:docname="Toyobo company logo.svg">
  <defs
     id="defs24" />
  <sodipodi:namedview
     pagecolor="#ffffff"
     bordercolor="#666666"
     borderopacity="1"
     objecttolerance="10"
     gridtolerance="10"
     guidetolerance="10"
     inkscape:pageopacity="0"
     inkscape:pageshadow="2"
     inkscape:window-width="1366"
     inkscape:window-height="716"
     id="namedview22"
     showgrid="false"
     fit-margin-top="5"
     fit-margin-bottom="5"
     fit-margin-right="5"
     fit-margin-left="5"
     inkscape:zoom="1"
     inkscape:cx="351.71792"
     inkscape:cy="196.59522"
     inkscape:window-x="-8"
     inkscape:window-y="-8"
     inkscape:window-maximized="1"
     inkscape:current-layer="svg2" />
  <metadata
     id="metadata4">
Created by potrace 1.11, written by Peter Selinger 2001-2013
<rdf:RDF>
  <cc:Work
     rdf:about="">
    <dc:format>image/svg+xml</dc:format>
    <dc:type
       rdf:resource="http://purl.org/dc/dcmitype/StillImage" />
    <dc:title></dc:title>
  </cc:Work>
</rdf:RDF>
</metadata>
  <path
     style="fill:#0077c3;fill-opacity:1"
     d="m 162.29596,147.13581 c -15.45607,-3.74706 -28.79886,-16.52003 -34.41336,-32.9437 -2.15102,-6.29222 -2.02775,-21.2544 0.23429,-28.43434 2.2145,-7.0291 6.4283,-13.83778 12.1158,-19.57676 5.47351,-5.52304 10.91091,-8.96326 18.563,-11.74473 4.91689,-1.78724 6.65997,-2.02089 15.03957,-2.01591 7.63484,0.005 10.51036,0.32966 14.78586,1.67176 11.48041,3.60377 22.69983,12.71665 27.78317,22.56664 4.87757,9.45127 5.58285,12.48485 5.55299,23.88486 -0.024,9.1509 -0.23485,10.77842 -1.98874,15.34813 -6.1187,15.94205 -18.92257,27.68293 -34.08776,31.25774 -5.95682,1.40417 -17.76463,1.39731 -23.58482,-0.0137 l 0,4e-5 z m 23.75983,-22.18952 c 5.93976,-2.83479 10.5866,-7.56052 13.4264,-13.65437 1.70097,-3.65007 2.00532,-5.33891 2.00532,-11.12742 0,-8.62865 -2.13014,-13.70686 -8.25991,-19.69143 -5.49778,-5.36755 -10.80014,-7.46802 -19.01321,-7.53189 -5.28921,-0.0411 -6.71896,0.26046 -11.16504,2.35511 -12.21672,5.75557 -18.58827,18.47117 -15.5087,30.95045 4.29075,17.38733 22.61918,26.28599 38.51514,18.69955 z"
     id="path4727"
     inkscape:connector-curvature="0" />
  <path
     style="fill:#0077c3;fill-opacity:1"
     d="m 245.86894,125.29428 0,-20.74432 -14.98647,-23.4237 C 222.63992,68.24321 215.10542,56.423 214.13915,54.85911 l -1.75686,-2.84344 11.24602,0.01 11.24602,0.01 10.19408,15.83319 c 5.60675,8.70825 10.55433,15.68168 10.99462,15.4965 0.9645,-0.40565 2.25142,-2.27358 12.84793,-18.64847 l 8.21885,-12.70067 11.37462,0 11.37462,0 -1.37017,2.08518 c -0.75359,1.14685 -8.2995,12.90542 -16.76869,26.13014 l -15.39852,24.04496 0,20.88131 0,20.88131 -10.23636,0 -10.23637,0 0,-20.7443 z"
     id="path4729"
     inkscape:connector-curvature="0" />
  <path
     style="fill:#0077c3;fill-opacity:1"
     d="m 324.12156,146.82468 c -8.40843,-2.27072 -14.17471,-5.7063 -21.03992,-12.53568 -6.29999,-6.26714 -9.7029,-11.65762 -12.51023,-19.81728 -2.12411,-6.17384 -2.12411,-22.44059 0,-28.61443 2.80302,-8.14712 6.21293,-13.5524 12.51023,-19.8308 9.64038,-9.61144 20.20924,-13.9884 33.77721,-13.9884 8.3835,0 14.71924,1.54917 22.15324,5.41677 11.10356,5.77671 20.40631,16.98049 24.03905,28.95147 1.98938,6.55561 2.17348,19.56955 0.37545,26.53896 -3.73215,14.46621 -17.05656,28.61092 -31.24659,33.17026 -7.42942,2.38711 -20.61123,2.72026 -28.05844,0.70913 z m 24.50302,-21.96683 c 5.63882,-2.77599 10.36498,-7.65726 13.13487,-13.56593 1.71708,-3.66285 2.01724,-5.321 2.01724,-11.14336 0,-6.1979 -0.23357,-7.31465 -2.48748,-11.893 -4.88443,-9.92167 -13.58719,-15.29589 -24.8455,-15.34283 -5.36928,-0.0224 -6.69766,0.2678 -11.06245,2.41658 -6.50142,3.20064 -11.992,8.9794 -14.24923,14.99711 -2.37021,6.31889 -2.02664,15.59827 0.7994,21.59094 6.51584,13.81697 23.06059,19.65177 36.69315,12.94049 z"
     id="path4731"
     inkscape:connector-curvature="0" />
  <path
     style="fill:#0077c3;fill-opacity:1"
     d="m 393.72754,98.97786 0,-47.17497 19.90404,0.43519 c 20.88031,0.45655 24.25601,0.93017 31.46285,4.41441 5.47017,2.64462 10.46168,8.0381 11.88988,12.8474 2.71573,9.14485 0.86573,19.5091 -4.38977,24.59276 -1.72788,1.67137 -3.80601,3.40673 -4.61805,3.85635 -1.33518,0.73927 -1.1021,1.02125 2.43577,2.94681 6.75764,3.67797 9.466,8.99818 9.47076,18.60405 0.005,11.54944 -4.33621,19.071 -13.66002,23.66344 l -5.06784,2.49615 -23.71381,0.24669 -23.71381,0.24669 0,-47.17497 z m 37.19732,29.62156 c 1.48333,-0.41208 3.67942,-1.77467 4.88017,-3.028 1.77372,-1.85136 2.2433,-3.10943 2.50355,-6.70746 0.65461,-9.04992 -3.85203,-12.47994 -16.52582,-12.57783 l -7.20337,-0.0556 -0.2093,11.5633 -0.20932,11.5633 7.03356,-0.005 c 3.86845,-0.002 8.24719,-0.34138 9.73053,-0.75345 l 0,3.2e-4 z m 1.64038,-39.13676 c 2.76971,-1.43227 4.3825,-4.749 4.3825,-9.01264 0,-7.56914 -3.15051,-9.79053 -14.97542,-10.55898 l -7.77205,-0.50506 0,10.52383 c 0,5.78811 0.25591,10.78605 0.56868,11.10653 0.89466,0.91668 15.48183,-0.35683 17.79629,-1.55368 z"
     id="path4733"
     inkscape:connector-curvature="0" />
  <path
     style="fill:#0077c3;fill-opacity:1"
     d="m 503.1453,147.51842 c -17.95646,-3.54784 -33.72229,-19.97081 -37.08819,-38.63405 -1.93121,-10.70815 -0.6273,-19.62801 4.42511,-30.27147 2.39391,-5.04303 4.25006,-7.59989 8.82303,-12.15379 15.26292,-15.19925 36.25573,-18.75652 55.45664,-9.39722 13.5232,6.59175 23.22271,19.1292 26.13527,33.7821 1.45196,7.30467 1.4596,11.02356 0.0381,18.54237 -1.78534,9.44341 -6.23254,17.58671 -13.59871,24.90071 -7.0187,6.969 -12.73483,10.32056 -21.36734,12.52838 -6.16446,1.5766 -16.75186,1.90269 -22.82393,0.70297 l -2e-5,0 z m 21.20792,-22.15527 c 5.66311,-2.59266 11.40793,-8.07087 14.00114,-13.35135 1.86309,-3.79379 2.0944,-5.10223 2.0944,-11.8473 0,-6.74507 -0.23131,-8.0535 -2.0944,-11.84729 -2.30512,-4.69386 -7.81423,-10.3112 -12.39419,-12.63769 -10.6959,-5.43322 -23.87879,-3.13929 -32.13649,5.592 -5.7652,6.09585 -7.1495,9.73692 -7.18293,18.89298 -0.0325,8.89755 1.25832,12.51318 6.49582,18.19519 8.38775,9.09963 20.63587,11.84749 31.21665,7.00346 z"
     id="path4735"
     inkscape:connector-curvature="0" />
  <path
     style="fill:#0077c3;fill-opacity:1"
     d="m 84.36186,109.26349 0,-37.53334 -10.99462,0 -10.99461,0 0,-9.85724 0,-9.85724 33.74209,0 33.74209,0 0,9.85724 0,9.85724 -10.99461,0 -10.99462,0 0,37.53334 0,37.53334 -11.75286,0 -11.75286,0 0,-37.53334 z"
     id="path4737"
     inkscape:connector-curvature="0" />
  <path
     style="fill:#0077c3;fill-opacity:1"
     d="M 110.52145,195.33013 C 82.50252,194.78068 81.51421,194.66343 68.81775,190.38226 34.95674,178.96455 8.7105704,145.92891 5.4064704,110.5675 4.3190704,98.92976 5.4759704,83.56009 8.1299904,74.38403 10.8356,65.02969 18.05265,50.68921 24.01525,42.81956 35.90421,27.12808 52.93886,15.074443 71.52196,9.2040449 c 14.10626,-4.456167 -0.33045,-4.199822 236.52342,-4.199822 239.37837,0 222.91336,-0.321 237.70781,4.63432 13.76919,4.6119151 25.3467,11.5319411 35.71762,21.3488861 15.54604,14.715631 25.3558,33.186431 28.82408,54.272951 1.74042,10.58145 1.07512,27.52883 -1.46574,37.33699 -8.49555,32.79425 -31.74097,57.80738 -63.64236,68.48205 -14.03905,4.69768 0.37334,4.3876 -213.25656,4.58817 -107.17853,0.10063 -206.81248,-0.0513 -221.40878,-0.33746 z m 426.51519,-23.79027 c 28.13634,-9.4942 46.54933,-30.186 51.94186,-58.3702 C 595.18275,80.74298 577.31288,46.83763 546.51953,32.610228 536.26039,27.87021 530.97324,26.877408 512.39354,26.202165 490.96148,25.42326 146.07929,25.425531 112.03795,26.204865 82.82829,26.87353 80.79266,27.208527 68.0595,33.442284 52.33841,41.13882 38.62443,55.38405 32.0401,70.857 c -4.70976,11.0678 -5.6652,16.04833 -5.6222,29.30755 0.0438,13.49497 1.11077,18.94715 5.85587,29.92249 6.57334,15.20405 19.78405,29.01527 35.02748,36.6197 6.03829,3.01231 14.78347,5.93922 19.71448,6.59821 2.50222,0.33441 103.33041,0.5634 224.06264,0.50889 l 219.51315,-0.0991 6.44512,-2.17482 z"
     id="path4739"
     inkscape:connector-curvature="0" />
</svg>
